<?xml version="1.0" standalone="no"?>
<!DOCTYPE svg PUBLIC "-//W3C//DTD SVG 20010904//EN"
 "http://www.w3.org/TR/2001/REC-SVG-20010904/DTD/svg10.dtd">
<svg version="1.0" xmlns="http://www.w3.org/2000/svg"
 width="24.000000pt" height="24.000000pt" viewBox="0 0 24.000000 24.000000"
 preserveAspectRatio="xMidYMid meet">

<g transform="translate(0.000000,24.000000) scale(0.100000,-0.100000)"
fill="#000000" stroke="none">
<path d="M93 223 c-38 -7 -45 -23 -60 -125 -3 -22 -1 -38 5 -38 5 0 13 -11 16
-25 6 -25 9 -26 69 -23 55 3 62 5 60 23 -1 11 5 24 13 28 16 9 19 58 3 74 -6
6 -12 19 -13 29 -2 10 -8 19 -15 20 -6 1 -7 0 -1 -3 23 -11 -5 -23 -55 -23
-58 0 -71 8 -52 34 13 17 47 22 87 11 23 -6 23 -5 -4 9 -15 9 -29 15 -30 15 0
-1 -11 -4 -23 -6z m-23 -83 c0 -5 -4 -10 -10 -10 -5 0 -10 5 -10 10 0 6 5 10
10 10 6 0 10 -4 10 -10z m90 0 c0 -5 -5 -10 -11 -10 -5 0 -7 5 -4 10 3 6 8 10
11 10 2 0 4 -4 4 -10z m-25 -44 c0 -16 -4 -22 -14 -18 -9 3 -12 1 -8 -5 4 -6
3 -22 -2 -35 -7 -18 -9 -12 -8 29 2 40 6 53 17 53 9 0 15 -9 15 -24z m-68 -58
c-3 -8 -6 -5 -6 6 -1 11 2 17 5 13 3 -3 4 -12 1 -19z m80 -10 c-3 -7 -5 -2 -5
12 0 14 2 19 5 13 2 -7 2 -19 0 -25z m33 2 c0 -5 -2 -10 -4 -10 -3 0 -8 5 -11
10 -3 6 -1 10 4 10 6 0 11 -4 11 -10z"/>
<path d="M10 40 c-11 -7 -12 -12 -3 -21 13 -13 33 -4 33 17 0 16 -9 18 -30 4z
m20 -10 c0 -5 -5 -10 -11 -10 -5 0 -7 5 -4 10 3 6 8 10 11 10 2 0 4 -4 4 -10z"/>
<path d="M204 35 c-4 -9 -4 -18 -2 -21 9 -8 39 8 35 19 -6 18 -27 20 -33 2z
m26 1 c0 -3 -4 -8 -10 -11 -5 -3 -10 -1 -10 4 0 6 5 11 10 11 6 0 10 -2 10 -4z"/>
</g>
</svg>
